<mxfile host="app.diagrams.net" modified="2023-11-05T22:50:01.406Z" agent="Mozilla/5.0 (Windows NT 10.0; Win64; x64; rv:109.0) Gecko/20100101 Firefox/119.0" etag="rAw9avDMduU7MXne1Djf" version="22.0.8" type="device">
  <diagram name="Page-1" id="Ir2mnbEKkDCIaxj3xJMn">
    <mxGraphModel dx="1266" dy="803" grid="1" gridSize="10" guides="1" tooltips="1" connect="1" arrows="1" fold="1" page="1" pageScale="1" pageWidth="827" pageHeight="1169" math="0" shadow="0">
      <root>
        <mxCell id="0" />
        <mxCell id="1" parent="0" />
        <mxCell id="TH3GNR_XO7iftzIWNU0B-1" value="&lt;font style=&quot;font-size: 19px;&quot;&gt;character_stats&lt;/font&gt;&lt;br&gt;&lt;div align=&quot;left&quot;&gt;&lt;ol&gt;&lt;li&gt;&amp;nbsp;PK character_name VARCHAR(50),&lt;/li&gt;&lt;li&gt;&amp;nbsp;&amp;nbsp; &amp;nbsp;character_archetype VARCHAR(50),&lt;/li&gt;&lt;li&gt;&amp;nbsp;&amp;nbsp; &amp;nbsp;character_forwardSpeed FLOAT,&lt;/li&gt;&lt;li&gt;&amp;nbsp;&amp;nbsp; &amp;nbsp;character_backwardSpeed FLOAT,&lt;/li&gt;&lt;li&gt;&amp;nbsp;&amp;nbsp; &amp;nbsp;character_dashForwardSpeed INT,&lt;/li&gt;&lt;li&gt;&amp;nbsp;&amp;nbsp; &amp;nbsp;character_dashBackwardSpeed INT,&lt;/li&gt;&lt;li&gt;&amp;nbsp;&amp;nbsp; &amp;nbsp;character_health INT,&lt;/li&gt;&lt;li&gt;&amp;nbsp;&amp;nbsp; &amp;nbsp;character_preJumpFrames INT, &lt;/li&gt;&lt;/ol&gt;&lt;/div&gt;" style="whiteSpace=wrap;html=1;aspect=fixed;" parent="1" vertex="1">
          <mxGeometry x="20" y="289" width="270" height="270" as="geometry" />
        </mxCell>
        <mxCell id="TH3GNR_XO7iftzIWNU0B-15" value="" style="edgeStyle=entityRelationEdgeStyle;fontSize=12;html=1;endArrow=ERoneToMany;startArrow=ERmandOne;rounded=0;strokeWidth=2;exitX=0.996;exitY=0.308;exitDx=0;exitDy=0;exitPerimeter=0;" parent="1" source="TH3GNR_XO7iftzIWNU0B-1" target="TH3GNR_XO7iftzIWNU0B-16" edge="1">
          <mxGeometry width="100" height="100" relative="1" as="geometry">
            <mxPoint x="300" y="330" as="sourcePoint" />
            <mxPoint x="490" y="250" as="targetPoint" />
          </mxGeometry>
        </mxCell>
        <mxCell id="TH3GNR_XO7iftzIWNU0B-16" value="&lt;div style=&quot;&quot;&gt;&lt;div align=&quot;center&quot;&gt;&lt;span style=&quot;&quot;&gt;&lt;span style=&quot;white-space: pre;&quot;&gt;&amp;nbsp;&amp;nbsp;&amp;nbsp;&amp;nbsp;&lt;/span&gt;&lt;/span&gt;&lt;font style=&quot;font-size: 22px;&quot;&gt;move_list&lt;/font&gt;&lt;br&gt;&lt;/div&gt;&lt;div align=&quot;left&quot;&gt;&lt;ol&gt;&lt;li&gt;&amp;nbsp; PK&amp;nbsp; FK character_name VARCHAR(50),&lt;/li&gt;&lt;li&gt;&amp;nbsp;&amp;nbsp;&amp;nbsp; PK move_name VARCHAR(50),&lt;/li&gt;&lt;li&gt;&amp;nbsp;&amp;nbsp;&amp;nbsp; move_buttonCombo VARCHAR(15),&lt;/li&gt;&lt;li&gt;&amp;nbsp;&amp;nbsp;&amp;nbsp; move_startupFrames INT,&lt;/li&gt;&lt;li&gt;&amp;nbsp;&amp;nbsp;&amp;nbsp; move_activeFrames INT,&lt;/li&gt;&lt;li&gt;&amp;nbsp;&amp;nbsp;&amp;nbsp; move_recoveryFrames INT,&lt;/li&gt;&lt;li&gt;&amp;nbsp;&amp;nbsp;&amp;nbsp; move_onHitAdvantage VARCHAR(15),&lt;/li&gt;&lt;li&gt;&amp;nbsp;&amp;nbsp;&amp;nbsp; move_onBlockAdvantage VARCHAR(15),&lt;/li&gt;&lt;li&gt;&amp;nbsp;&amp;nbsp;&amp;nbsp; move_totalFrames INT,&lt;/li&gt;&lt;li&gt;&amp;nbsp;&amp;nbsp;&amp;nbsp; move_rawDamage INT,&lt;/li&gt;&lt;li&gt;&amp;nbsp;&amp;nbsp;&amp;nbsp; move_heightHit VARCHAR(15),&lt;/li&gt;&lt;li&gt;&amp;nbsp;&amp;nbsp;&amp;nbsp; move_crossup VARCHAR (3),&lt;/li&gt;&lt;/ol&gt;&lt;/div&gt;&lt;/div&gt;" style="whiteSpace=wrap;html=1;aspect=fixed;align=left;" parent="1" vertex="1">
          <mxGeometry x="520" y="50" width="290" height="290" as="geometry" />
        </mxCell>
        <mxCell id="TH3GNR_XO7iftzIWNU0B-17" value="&lt;font style=&quot;font-size: 21px;&quot;&gt;tier_placements&lt;/font&gt;&lt;br&gt;&lt;div&gt;&lt;br&gt;&lt;div align=&quot;left&quot;&gt;&lt;br&gt;&lt;ol&gt;&lt;li&gt;&amp;nbsp;&amp;nbsp;&amp;nbsp; PK tier_placement INT,&lt;/li&gt;&lt;li&gt;FK character_name VARCHAR(50)&lt;/li&gt;&lt;/ol&gt;&lt;/div&gt;&lt;/div&gt;" style="whiteSpace=wrap;html=1;aspect=fixed;" parent="1" vertex="1">
          <mxGeometry x="24" y="31" width="250" height="250" as="geometry" />
        </mxCell>
        <mxCell id="TH3GNR_XO7iftzIWNU0B-18" value="&lt;font style=&quot;font-size: 19px;&quot;&gt;character_matchups&lt;/font&gt;&lt;br&gt;&lt;div align=&quot;left&quot;&gt;&lt;ol&gt;&lt;li&gt;PK FK character_name VARCHAR(50),&lt;/li&gt;&lt;li&gt;&amp;nbsp;&amp;nbsp;&amp;nbsp; PK character_matchup VARCHAR(100),&lt;/li&gt;&lt;li&gt;&amp;nbsp;&amp;nbsp;&amp;nbsp; matchup_score FLOAT, &lt;/li&gt;&lt;/ol&gt;&lt;/div&gt;" style="whiteSpace=wrap;html=1;aspect=fixed;" parent="1" vertex="1">
          <mxGeometry x="540" y="370" width="270" height="270" as="geometry" />
        </mxCell>
        <mxCell id="TH3GNR_XO7iftzIWNU0B-19" value="" style="edgeStyle=entityRelationEdgeStyle;fontSize=12;html=1;endArrow=ERmandOne;startArrow=ERmandOne;rounded=0;jumpSize=6;strokeWidth=2;entryX=1;entryY=0.468;entryDx=0;entryDy=0;entryPerimeter=0;" parent="1" source="TH3GNR_XO7iftzIWNU0B-1" target="TH3GNR_XO7iftzIWNU0B-17" edge="1">
          <mxGeometry width="100" height="100" relative="1" as="geometry">
            <mxPoint x="290" y="340" as="sourcePoint" />
            <mxPoint x="260" y="75" as="targetPoint" />
            <Array as="points">
              <mxPoint x="290" y="350" />
              <mxPoint x="425.95" y="455.5" />
              <mxPoint x="450" y="610" />
              <mxPoint x="460" y="630" />
              <mxPoint x="360.95" y="575.5" />
              <mxPoint x="470.95" y="675.5" />
              <mxPoint x="440.95" y="628" />
              <mxPoint x="490.95" y="805.5" />
              <mxPoint x="480.95" y="715.5" />
              <mxPoint x="250.95" y="595.5" />
              <mxPoint x="330.95" y="575.5" />
            </Array>
          </mxGeometry>
        </mxCell>
        <mxCell id="TH3GNR_XO7iftzIWNU0B-20" value="" style="edgeStyle=entityRelationEdgeStyle;fontSize=12;html=1;endArrow=ERoneToMany;startArrow=ERmandOne;rounded=0;strokeWidth=2;entryX=0;entryY=0.5;entryDx=0;entryDy=0;exitX=1.008;exitY=0.719;exitDx=0;exitDy=0;exitPerimeter=0;" parent="1" source="TH3GNR_XO7iftzIWNU0B-1" target="TH3GNR_XO7iftzIWNU0B-18" edge="1">
          <mxGeometry width="100" height="100" relative="1" as="geometry">
            <mxPoint x="290" y="480" as="sourcePoint" />
            <mxPoint x="280" y="780" as="targetPoint" />
          </mxGeometry>
        </mxCell>
        <mxCell id="TH3GNR_XO7iftzIWNU0B-22" value="&lt;div&gt;&lt;font style=&quot;font-size: 19px;&quot;&gt;character_popularity&lt;/font&gt;&lt;/div&gt;&lt;div align=&quot;left&quot;&gt;&lt;ol&gt;&lt;li&gt;FK PK character_name VARCHAR(50),&lt;/li&gt;&lt;li&gt;&amp;nbsp;&amp;nbsp;&amp;nbsp; number_of_players INT,&lt;/li&gt;&lt;li&gt;&amp;nbsp;&amp;nbsp;&amp;nbsp; highest_LP_achieved INT,&lt;/li&gt;&lt;li&gt;&amp;nbsp;&amp;nbsp;&amp;nbsp; top_player_name VARCHAR(50),&lt;/li&gt;&lt;/ol&gt;&lt;/div&gt;" style="whiteSpace=wrap;html=1;aspect=fixed;" parent="1" vertex="1">
          <mxGeometry x="31.5" y="585" width="237" height="237" as="geometry" />
        </mxCell>
        <mxCell id="qrDlyGq886WtPooSaPmE-1" value="" style="edgeStyle=entityRelationEdgeStyle;fontSize=12;html=1;endArrow=ERmandOne;startArrow=ERmandOne;rounded=0;strokeWidth=2;" edge="1" parent="1" target="TH3GNR_XO7iftzIWNU0B-22">
          <mxGeometry width="100" height="100" relative="1" as="geometry">
            <mxPoint x="281.5" y="540" as="sourcePoint" />
            <mxPoint x="260" y="703.5" as="targetPoint" />
            <Array as="points">
              <mxPoint x="311.5" y="680" />
              <mxPoint x="311.5" y="630" />
              <mxPoint x="321.5" y="610" />
              <mxPoint x="321.5" y="580" />
              <mxPoint x="311.5" y="560" />
            </Array>
          </mxGeometry>
        </mxCell>
      </root>
    </mxGraphModel>
  </diagram>
</mxfile>
